<?xml version="1.0" encoding="UTF-8"?>
<svg id="Layer_1" data-name="Layer 1" xmlns="http://www.w3.org/2000/svg" viewBox="0 0 2500 2500">
  <defs>
    <style>
      .cls-1 {
        fill: #00e7ff;
      }

      .cls-2 {
        fill: #0071bc;
      }

      .cls-3 {
        fill: #1b1429;
      }

      .cls-4 {
        fill: #29abe2;
      }
    </style>
  </defs>
  <path class="cls-3" d="m2369.4,1250.48c0,640.93-496.52,1160.5-1109,1160.5S151.4,1891.4,151.4,1250.48,647.92,89.98,1260.4,89.98c344.52,0,652.35,164.4,855.76,422.31,98.18,124.49,172.03,270.77,213.94,430.86,25.62,97.88,39.3,200.93,39.3,307.32Z"/>
  <path class="cls-4" d="m332.4,613.98c33.39-36.64,437.65-465.53,1013-375,375.45,59.08,601.6,304.4,667,381-467.24-379.26-1097.21-228.49-1297,135-165.87,301.77-52.55,781.67,335.9,1056.74-74.51-17.99-379.08-100.49-582.9-400.74-241.64-355.98-151.18-737.43-136-797Z"/>
  <path class="cls-1" d="m167.27,1447.13c-20.13-108.6-40.36-301.9,24.14-526.15,37.8-131.42,93.45-234.34,141-307-4.44,48.63-52.17,679.29,401,1033,432.4,337.5,1141.7,283.05,1620.14-199.85-26.08,37.37-440.49,609.6-1156.14,575.85-638.6-30.12-989.9-517.9-1030.14-575.85Z"/>
  <path class="cls-2" d="m641.4,2062.98c114.94-21.1,617.63-126.49,948-594,208.5-295.05,249.65-594.66,259.59-738.25,45.33,144.9,97.52,376.45,75.41,660.25-31.31,401.93-194.83,692.83-287,833-332-53.67-664-107.33-996-161Z"/>
  <path class="cls-4" d="m585.4,1947.98l340.98,32.71c119.2-38.48,387.6-143.19,611.02-408.71,288.64-343.02,309.63-725.55,311.59-841.25-20.1,130.71-90.08,469.15-373.59,771.25-344.14,366.71-770.11,431.83-890,446Z"/>
  <path class="cls-2" d="m167.27,1447.13c69.19,548.2,540.59,963.85,1093.14,963.85s1023.95-415.65,1093.14-963.85c-36.49,51.44-410.78,559.85-1081.14,565.85-685.21,6.13-1071.25-518.09-1105.14-565.85Z"/>
</svg>