<svg viewBox="0 0 2500 2500" xmlns="http://www.w3.org/2000/svg" xmlns:xlink="http://www.w3.org/1999/xlink"><clipPath id="a"><path d="m2369.8 1249.51c0 640.93-496.52 1160.5-1109 1160.5s-1109-519.57-1109-1160.5 496.51-1160.5 1109-1160.5c344.52 0 652.35 164.4 855.76 422.31 98.18 124.49 172.03 270.77 213.94 430.86 25.62 97.88 39.3 200.93 39.3 307.32z"/></clipPath><g clip-path="url(#a)" fill="none"><path d="m2369.4 1250.48c0 640.93-496.52 1160.5-1109 1160.5s-1109-519.58-1109-1160.5 496.52-1160.5 1109-1160.5c344.52 0 652.35 164.4 855.76 422.31 98.18 124.49 172.03 270.77 213.94 430.86 25.62 97.88 39.3 200.93 39.3 307.32z" fill="#1b1429"/><path d="m332.4 613.98c33.39-36.64 437.65-465.53 1013-375 375.45 59.08 601.6 304.4 667 381-467.24-379.26-1097.21-228.49-1297 135-165.87 301.77-52.55 781.67 335.9 1056.74-74.51-17.99-379.08-100.49-582.9-400.74-241.64-355.98-151.18-737.43-136-797z" fill="#29abe2"/><path d="m1740 1921c9.67-32.67 19.33-65.33 29-98 88.29-53.43 262.17-176.33 372-401 209.73-429.04 2.88-854.91-25-910 63.47 62.19 267.13 277.48 285 605 7.49 137.26-19.98 251.56-47 330-49.7 144.28-149.08 223.9-201 270-152.65 135.56-318.89 184.58-413 204z" fill="#0071bc"/><path d="m167.27 1447.13c-20.13-108.6-40.36-301.9 24.14-526.15 37.8-131.42 93.45-234.34 141-307-42.4 432.84 104.25 849.96 401 1033 391.38 241.41 893.4 136.6 1180.79-173.3 367.62-396.42 209.99-939.41 202.81-962.68 35.13 67.97 226 452.93 61 855-93.77 228.5-259.8 358.51-339 419-57.85 44.18-305.48 226.06-641.6 237.98-625.57 22.17-1006.31-539.45-1030.14-575.85z" fill="#00e7ff"/><path d="m360 1779c-7.16 50.73 127.72 135.46 646 285 351.58-186.63 524.61-410.26 604-534 68.94-107.46 95.49-183.58 96-265 1.41-225.73-198.01-381.45-243-415 81.69 183.02 140.76 403.88 45 572-222.64 390.88-1129.97 229.31-1148 357z" fill="#29abe2"/><path d="m167.27 1447.13c69.35 548.18 540.71 963.74 1093.14 963.85 552.64.11 1024.28-415.58 1093.6-963.98-36.48 51.42-410.93 560.07-1081.6 565.98-685.19 6.04-1071.21-518.04-1105.14-565.85z" fill="#0071bc"/></g><path d="m1014 2002.95c470.73-239.57 721.6-598.77 630-897.18-19.62-63.9-64.87-157.38-181-255.77 63.26 24.3 113.98 53.31 155 83.66 407.5 301.52 147.98 950.37 122 1012.72-60.64 30.29-158.51 70.54-288 89.24-200.41 28.95-362.82-10.14-438-32.67z" fill="#0071bc"/></svg>